# xmcd
#
# Track frame offsets:
#       150
#       24130
#       47889
#       69224
#       88926
#       103667
#       122168
#       153288
#       179360
#       204158
#       223918
#       240734
#       259586
#
# Disc length: 3892 seconds
#
# Revision: 0
# Processed by: cddbd v1.5.2PL0 Copyright (c) Steve Scherf et al.
# Submitted via: WhereIsIt 3.68
#
DISCID=ad0f320d
DTITLE=Воскресение - Не торпясь везде Live [CD1]
DYEAR=2003
DGENRE=Russian Rock
TTITLE0=Все сначала
TTITLE1=Посмотри как я живу
TTITLE2=Сотворю тебе мир
TTITLE3=Ветер (Дыхание доброго неба)
TTITLE4=Я тоже был
TTITLE5=Не оставь меня
TTITLE6=Марсианская
TTITLE7=Волчья
TTITLE8=Научи меня жить
TTITLE9=Атлантида
TTITLE10=Когда ты смотришь
TTITLE11=Спой со мной
TTITLE12=Дело дрянь
EXTD=
EXTT0=
EXTT1=
EXTT2=
EXTT3=
EXTT4=
EXTT5=
EXTT6=
EXTT7=
EXTT8=
EXTT9=
EXTT10=
EXTT11=
EXTT12=
PLAYORDER=
